<svg width="45" height="45" viewBox="0 0 45 45" fill="none" xmlns="http://www.w3.org/2000/svg">
<path d="M22.5 0.5C34.6498 0.5 44.5 10.3497 44.5 22.5C44.5 34.6503 34.6498 44.5 22.5 44.5C10.3502 44.5 0.5 34.6503 0.5 22.5C0.5 10.3497 10.3502 0.5 22.5 0.5ZM25.6055 14.8691L25.6016 14.8359C25.5453 14.4187 25.4606 14.0024 25.2129 13.6738C24.946 13.3199 24.5565 13.1481 24.0859 13.0557L24.0381 13.0469H23.9893L18.7812 13.0479C18.3645 13.0479 18.0175 13.1289 17.7109 13.2979C17.4125 13.4624 17.1861 13.6922 16.9863 13.9258L16.9854 13.9268C16.927 13.9953 16.8574 14.0825 16.8037 14.1777C16.7544 14.2652 16.677 14.4314 16.707 14.6357C16.7418 14.8715 16.8954 15.0204 17.0332 15.1016C17.159 15.1756 17.3032 15.2154 17.4346 15.2402V15.2393C17.7777 15.3043 18.0127 15.441 18.1748 15.6182C18.3389 15.7976 18.4604 16.0542 18.5137 16.4121V16.4131C18.7131 17.7469 18.7006 19.0953 18.583 20.4619C18.5502 20.8431 18.4873 21.19 18.3555 21.5V21.501C18.3079 21.6135 18.2626 21.6797 18.2295 21.7158C18.214 21.7327 18.2022 21.7415 18.1953 21.7461C18.1888 21.7503 18.1848 21.7516 18.1836 21.752C18.1823 21.7523 18.179 21.7529 18.1719 21.7529C18.164 21.7529 18.1492 21.7519 18.127 21.7461C18.1035 21.7399 18.073 21.729 18.0361 21.7109L17.9062 21.6338C17.5065 21.3595 17.2134 20.9642 16.875 20.4863C15.8046 18.9736 14.9204 17.3547 14.1797 15.6533L13.8711 14.9189L13.7529 14.665C13.6216 14.42 13.4498 14.2015 13.2295 14.0303C12.9302 13.7978 12.569 13.6754 12.1631 13.6689C11.0314 13.6509 9.89888 13.6452 8.76562 13.6553L7.63184 13.6709C7.1377 13.6803 6.61228 13.8031 6.33691 14.2422C6.06279 14.6794 6.17819 15.2054 6.37891 15.6523C8.02358 19.3109 9.8641 22.891 12.2754 26.1602H12.2764C13.5232 27.8488 14.9751 29.3695 16.8691 30.4521C19.0278 31.6862 21.3399 32.0488 23.7373 31.9365C24.2893 31.9106 24.8143 31.8274 25.1826 31.4775C25.5583 31.1206 25.6557 30.5998 25.6816 30.0391C25.7161 29.3074 25.7981 28.6659 26.1064 28.1045C26.2437 27.8541 26.372 27.7826 26.4512 27.7637C26.5332 27.7442 26.6858 27.7515 26.9297 27.9102H26.9307C27.192 28.0794 27.4216 28.3025 27.6621 28.5664H27.6631C28.1114 29.056 28.5684 29.5819 29.041 30.0908L29.5186 30.5918C30.3892 31.479 31.4685 32.043 32.833 31.9365L37.4219 31.9375H37.4385L37.4551 31.9365C38.0469 31.8971 38.478 31.5093 38.6738 31.0234C38.8678 30.5419 38.8417 29.9552 38.5664 29.4209H38.5654C38.241 28.7908 37.8209 28.2402 37.3965 27.7314C36.4334 26.5753 35.2833 25.573 34.2627 24.5762V24.5752L34.1035 24.415C33.768 24.061 33.6643 23.8433 33.6475 23.6748C33.6289 23.4866 33.7055 23.2178 34.0752 22.7021L34.0762 22.7012C34.4861 22.1263 34.9128 21.561 35.3447 20.9912C35.7754 20.4231 36.2119 19.8492 36.6348 19.2646C37.4049 18.1988 38.2588 17.0532 38.6992 15.667C38.8397 15.224 38.9068 14.7387 38.6553 14.3311C38.4049 13.9257 37.9432 13.7667 37.4912 13.6895H37.4902C37.2972 13.6563 37.1081 13.6563 36.9639 13.6562L31.9541 13.6504C31.5701 13.6449 31.218 13.7261 30.9199 13.9375C30.6258 14.1462 30.4368 14.444 30.3057 14.7715V14.7725C30.0117 15.511 29.7145 16.2345 29.3721 16.9297C28.6314 18.4346 27.8256 19.8564 26.7412 21.0752L26.5215 21.3164C26.3608 21.4865 26.2662 21.5924 26.1611 21.6611C26.1177 21.6895 26.0894 21.6992 26.0732 21.7021C26.0617 21.7042 26.0438 21.7046 26.0117 21.6953C25.9361 21.6645 25.8236 21.5531 25.7275 21.2959C25.6354 21.0489 25.6076 20.7958 25.6104 20.7051V20.6895L25.6055 14.9023V14.8691Z" fill="#CACACA" stroke="black"/>
</svg>
